<?xml version="1.0" encoding="utf-8"?>
<!-- Generator: Adobe Illustrator 26.1.0, SVG Export Plug-In . SVG Version: 6.00 Build 0)  -->
<svg version="1.1" id="Layer_1" xmlns="http://www.w3.org/2000/svg" xmlns:xlink="http://www.w3.org/1999/xlink" x="0px" y="0px"
	 viewBox="0 0 500 500" style="enable-background:new 0 0 500 500;" xml:space="preserve">
<style type="text/css">
	.st0{fill:url(#SVGID_1_);}
	.st1{fill:url(#SVGID_00000026862815617586488600000016712271778864652431_);}
	.st2{fill:url(#SVGID_00000181801407931158839170000017059267040114173070_);}
	.st3{fill:url(#SVGID_00000109025567586479875120000003543426555803665032_);}
	.st4{fill:url(#SVGID_00000147901828317548789430000004305867953631935140_);}
	.st5{fill:url(#SVGID_00000166665325971966167210000016917756390586157700_);}
	.st6{fill:url(#SVGID_00000081645831972310063990000015313131982962150797_);}
	.st7{fill:url(#SVGID_00000027582083784189149730000000406150826521922463_);}
	.st8{fill:url(#SVGID_00000063610457291562285720000015394947305487963808_);}
	.st9{fill:url(#SVGID_00000161593738916197389750000008744051994363904417_);}
	.st10{fill:url(#SVGID_00000036234159252091171280000016899318949201218458_);}
	.st11{fill:url(#SVGID_00000078041381824984305820000009517436286072721281_);}
	.st12{fill:url(#SVGID_00000114777991192037737920000002675717317305347004_);}
	.st13{fill:url(#SVGID_00000131327835032811262490000000769838338850621625_);}
</style>
<linearGradient id="SVGID_1_" gradientUnits="userSpaceOnUse" x1="159.5771" y1="213.1633" x2="255.2922" y2="213.1633">
	<stop  offset="2.290508e-02" style="stop-color:#F5E38D"/>
	<stop  offset="5.307560e-02" style="stop-color:#E7CE78"/>
	<stop  offset="0.1086" style="stop-color:#D2AE56"/>
	<stop  offset="0.1615" style="stop-color:#C3963E"/>
	<stop  offset="0.2102" style="stop-color:#B9882F"/>
	<stop  offset="0.2508" style="stop-color:#B6832A"/>
	<stop  offset="0.2835" style="stop-color:#D3AF57"/>
	<stop  offset="0.3161" style="stop-color:#ECD57F"/>
	<stop  offset="0.3331" style="stop-color:#F6E48E"/>
	<stop  offset="0.3384" style="stop-color:#F0DA80"/>
	<stop  offset="0.3497" style="stop-color:#E5C868"/>
	<stop  offset="0.3624" style="stop-color:#DDBB55"/>
	<stop  offset="0.3774" style="stop-color:#D7B148"/>
	<stop  offset="0.3968" style="stop-color:#D4AC40"/>
	<stop  offset="0.4357" style="stop-color:#D3AA3E"/>
	<stop  offset="0.4497" style="stop-color:#CEA33A"/>
	<stop  offset="0.4905" style="stop-color:#C39332"/>
	<stop  offset="0.5372" style="stop-color:#BC8A2D"/>
	<stop  offset="0.6029" style="stop-color:#BA872C"/>
	<stop  offset="0.6191" style="stop-color:#BC8B2E"/>
	<stop  offset="0.741" style="stop-color:#CCA438"/>
	<stop  offset="0.8524" style="stop-color:#D5B33F"/>
	<stop  offset="0.943" style="stop-color:#D8B841"/>
</linearGradient>
<path class="st0" d="M159.6,273.6c0-40.2,0-80,0-120.2c15.9,16.1,31.6,31.9,47.4,47.8c16.2-16.3,31.9-32,48.3-48.5c0,2,0,3.1,0,4.1
	c0,10.1,0,20.2,0,30.3c0,1.2-0.5,2.7-1.3,3.5c-15.2,15.4-30.6,30.7-45.9,46c-0.1,0.1-0.3,0.2-0.6,0.4c-7-7.2-14-14.4-21-21.6
	c-0.3,0.2-0.7,0.4-1,0.6c-0.1,0.9-0.2,1.9-0.2,2.8c0,9.1,0,18.2-0.1,27.3c0,1.2-0.4,2.7-1.2,3.5c-7.6,7.8-15.4,15.5-23.2,23.2
	C160.6,273.1,160.1,273.2,159.6,273.6z"/>
<linearGradient id="SVGID_00000081630363226744737450000007594766914589117850_" gradientUnits="userSpaceOnUse" x1="244.6332" y1="214.4307" x2="340.161" y2="214.4307">
	<stop  offset="2.290508e-02" style="stop-color:#F5E38D"/>
	<stop  offset="5.307560e-02" style="stop-color:#E7CE78"/>
	<stop  offset="0.1086" style="stop-color:#D2AE56"/>
	<stop  offset="0.1615" style="stop-color:#C3963E"/>
	<stop  offset="0.2102" style="stop-color:#B9882F"/>
	<stop  offset="0.2508" style="stop-color:#B6832A"/>
	<stop  offset="0.2835" style="stop-color:#D3AF57"/>
	<stop  offset="0.3161" style="stop-color:#ECD57F"/>
	<stop  offset="0.3331" style="stop-color:#F6E48E"/>
	<stop  offset="0.3384" style="stop-color:#F0DA80"/>
	<stop  offset="0.3497" style="stop-color:#E5C868"/>
	<stop  offset="0.3624" style="stop-color:#DDBB55"/>
	<stop  offset="0.3774" style="stop-color:#D7B148"/>
	<stop  offset="0.3968" style="stop-color:#D4AC40"/>
	<stop  offset="0.4357" style="stop-color:#D3AA3E"/>
	<stop  offset="0.4497" style="stop-color:#CEA33A"/>
	<stop  offset="0.4905" style="stop-color:#C39332"/>
	<stop  offset="0.5372" style="stop-color:#BC8A2D"/>
	<stop  offset="0.6029" style="stop-color:#BA872C"/>
	<stop  offset="0.6191" style="stop-color:#BC8B2E"/>
	<stop  offset="0.741" style="stop-color:#CCA438"/>
	<stop  offset="0.8524" style="stop-color:#D5B33F"/>
	<stop  offset="0.943" style="stop-color:#D8B841"/>
</linearGradient>
<path style="fill:url(#SVGID_00000081630363226744737450000007594766914589117850_);" d="M270,207.9c0,8.5-0.1,16.4,0,24.4
	c0.1,10.2,6.9,18.8,16.6,21.3c13.9,3.6,27.6-6.7,27.7-21.1c0.1-18.4,0.1-36.8,0-55.2c0-2.1,0.6-3.6,2.1-5.1
	c7.7-7.7,15.4-15.5,23.5-23.7c0.1,1.2,0.2,1.7,0.2,2.3c0,26.9,0,53.7,0,80.6c-0.1,24.3-16.1,43.5-40,47.9
	c-25.8,4.8-51.6-14.1-55.3-40c-0.6-4.1,0.1-7,3.3-9.9c6.8-6.3,13.2-13.1,19.8-19.6C268.4,209.4,269,208.9,270,207.9z"/>
<linearGradient id="SVGID_00000092416245925810609220000001916741725608867222_" gradientUnits="userSpaceOnUse" x1="313.301" y1="131.7238" x2="342.1231" y2="131.7238">
	<stop  offset="2.290508e-02" style="stop-color:#F5E38D"/>
	<stop  offset="5.307560e-02" style="stop-color:#E7CE78"/>
	<stop  offset="0.1086" style="stop-color:#D2AE56"/>
	<stop  offset="0.1615" style="stop-color:#C3963E"/>
	<stop  offset="0.2102" style="stop-color:#B9882F"/>
	<stop  offset="0.2508" style="stop-color:#B6832A"/>
	<stop  offset="0.2835" style="stop-color:#D3AF57"/>
	<stop  offset="0.3161" style="stop-color:#ECD57F"/>
	<stop  offset="0.3331" style="stop-color:#F6E48E"/>
	<stop  offset="0.3384" style="stop-color:#F0DA80"/>
	<stop  offset="0.3497" style="stop-color:#E5C868"/>
	<stop  offset="0.3624" style="stop-color:#DDBB55"/>
	<stop  offset="0.3774" style="stop-color:#D7B148"/>
	<stop  offset="0.3968" style="stop-color:#D4AC40"/>
	<stop  offset="0.4357" style="stop-color:#D3AA3E"/>
	<stop  offset="0.4497" style="stop-color:#CEA33A"/>
	<stop  offset="0.4905" style="stop-color:#C39332"/>
	<stop  offset="0.5372" style="stop-color:#BC8A2D"/>
	<stop  offset="0.6029" style="stop-color:#BA872C"/>
	<stop  offset="0.6191" style="stop-color:#BC8B2E"/>
	<stop  offset="0.741" style="stop-color:#CCA438"/>
	<stop  offset="0.8524" style="stop-color:#D5B33F"/>
	<stop  offset="0.943" style="stop-color:#D8B841"/>
</linearGradient>
<circle style="fill:url(#SVGID_00000092416245925810609220000001916741725608867222_);" cx="327.7" cy="131.7" r="14.4"/>
<linearGradient id="SVGID_00000110436047139266731220000011709141409060480908_" gradientUnits="userSpaceOnUse" x1="113.647" y1="211.0158" x2="386.0911" y2="211.0158">
	<stop  offset="2.290508e-02" style="stop-color:#F5E38D"/>
	<stop  offset="5.307560e-02" style="stop-color:#E7CE78"/>
	<stop  offset="0.1086" style="stop-color:#D2AE56"/>
	<stop  offset="0.1615" style="stop-color:#C3963E"/>
	<stop  offset="0.2102" style="stop-color:#B9882F"/>
	<stop  offset="0.2508" style="stop-color:#B6832A"/>
	<stop  offset="0.2835" style="stop-color:#D3AF57"/>
	<stop  offset="0.3161" style="stop-color:#ECD57F"/>
	<stop  offset="0.3331" style="stop-color:#F6E48E"/>
	<stop  offset="0.3384" style="stop-color:#F0DA80"/>
	<stop  offset="0.3497" style="stop-color:#E5C868"/>
	<stop  offset="0.3624" style="stop-color:#DDBB55"/>
	<stop  offset="0.3774" style="stop-color:#D7B148"/>
	<stop  offset="0.3968" style="stop-color:#D4AC40"/>
	<stop  offset="0.4357" style="stop-color:#D3AA3E"/>
	<stop  offset="0.4497" style="stop-color:#CEA33A"/>
	<stop  offset="0.4905" style="stop-color:#C39332"/>
	<stop  offset="0.5372" style="stop-color:#BC8A2D"/>
	<stop  offset="0.6029" style="stop-color:#BA872C"/>
	<stop  offset="0.6191" style="stop-color:#BC8B2E"/>
	<stop  offset="0.741" style="stop-color:#CCA438"/>
	<stop  offset="0.8524" style="stop-color:#D5B33F"/>
	<stop  offset="0.943" style="stop-color:#D8B841"/>
</linearGradient>
<path style="fill:url(#SVGID_00000110436047139266731220000011709141409060480908_);" d="M373.8,149.6c2.8,5.9,4,11.2,6,17.5
	c0.5,1.6,0.9,3.2,1.4,4.8l0.7,2.4l0.6,2.4c0.4,1.6,0.8,3.2,1.1,4.9l0.9,4.9c0.3,1.6,0.5,3.3,0.7,5l0.3,2.5l0.2,2.5
	c0.1,1.7,0.3,3.3,0.3,5l0.1,5c0,6.7-0.4,13.5-1.3,20.2c-0.2,1.7-0.6,3.3-0.9,5c-0.2,0.8-0.3,1.7-0.5,2.5l-0.7,2.4
	c-0.8,3.3-1.8,6.5-2.8,9.7c-2.2,6.4-4.7,12.7-7.7,18.7c-3,6-6.5,11.8-10.4,17.4c-3.9,5.5-8.2,10.7-12.8,15.7
	c-18.5,19.7-42.9,33.6-69.1,39.5c-6.6,1.4-13.2,2.5-19.9,3c-6.7,0.5-13.4,0.6-20.1,0.1c-6.7-0.5-13.3-1.5-19.9-2.9
	c-6.5-1.5-12.9-3.4-19.2-5.8c-6.2-2.5-12.3-5.3-18.1-8.6c-5.8-3.3-11.4-7.1-16.7-11.2c-5.3-4.1-10.2-8.7-14.9-13.5
	c-4.6-4.9-8.8-10.1-12.7-15.6c-15.4-22-24.1-48.7-24.7-75.7c-0.1-6.7,0.2-13.5,1-20.2c0.9-6.7,2.2-13.3,4-19.8
	c1.8-6.5,4.1-12.9,6.8-19.1l2.2-4.6c0.4-0.8,0.7-1.5,1.1-2.3l1.2-2.2l1.2-2.3c0.4-0.8,0.8-1.5,1.3-2.2c0.9-1.5,1.7-2.9,2.7-4.3
	c3.8-5.6,8-10.8,12.6-15.8l3.5-3.6c1.2-1.2,2.4-2.3,3.6-3.5l1.8-1.7l1.9-1.6c1.3-1.1,2.5-2.2,3.8-3.2l4-3.1c1.3-1,2.7-1.9,4.1-2.9
	l2-1.4l2.1-1.3c1.4-0.9,2.8-1.8,4.2-2.6c5.7-3.3,11.7-6.1,17.8-8.6c-5.8,3-11.5,6.4-16.8,10.1c-5.3,3.8-10.4,7.9-15.2,12.3
	c-4.7,4.5-9.2,9.2-13.2,14.3c-4,5.1-7.7,10.4-10.9,16c-0.8,1.4-1.6,2.8-2.4,4.2c-0.4,0.7-0.8,1.4-1.2,2.1l-1.2,2.1
	c-1.6,2.8-2.9,5.7-4.3,8.7c-2.6,5.9-4.7,12-6.5,18.2c-1.7,6.2-2.9,12.5-3.8,18.9c-0.8,6.4-1.1,12.8-1,19.2
	c0.5,25.7,8.9,51.2,23.5,72.1c3.7,5.2,7.7,10.2,12.1,14.9c4.4,4.6,9.1,9,14.2,12.9c5.1,3.9,10.4,7.5,15.9,10.7
	c5.6,3.1,11.4,5.8,17.3,8.2c6,2.3,12.1,4.1,18.3,5.5c6.2,1.4,12.6,2.3,18.9,2.8c6.4,0.5,12.8,0.4,19.1-0.1
	c6.4-0.5,12.7-1.5,18.9-2.9c25-5.7,48.2-19,65.8-37.7c17.7-18.7,29.8-42.7,34.1-68c1.3-6.3,2.2-12.7,2.7-19.2
	c0.5-6.5,0.3-13-0.1-19.4c-0.5-6.5-1.5-12.9-2.9-19.3C376.5,161.2,376,155.8,373.8,149.6z"/>
<g>
	
		<linearGradient id="SVGID_00000134960046692985995090000003534415393027355798_" gradientUnits="userSpaceOnUse" x1="126.6756" y1="341.5786" x2="165.4841" y2="433.4935">
		<stop  offset="2.290508e-02" style="stop-color:#F5E38D"/>
		<stop  offset="4.615803e-02" style="stop-color:#E7CE78"/>
		<stop  offset="8.894203e-02" style="stop-color:#D2AE56"/>
		<stop  offset="0.1297" style="stop-color:#C3963E"/>
		<stop  offset="0.1673" style="stop-color:#B9882F"/>
		<stop  offset="0.1986" style="stop-color:#B6832A"/>
		<stop  offset="0.2519" style="stop-color:#D3AF57"/>
		<stop  offset="0.3053" style="stop-color:#ECD57F"/>
		<stop  offset="0.3331" style="stop-color:#F6E48E"/>
		<stop  offset="0.3384" style="stop-color:#F0DA80"/>
		<stop  offset="0.3497" style="stop-color:#E5C868"/>
		<stop  offset="0.3624" style="stop-color:#DDBB55"/>
		<stop  offset="0.3774" style="stop-color:#D7B148"/>
		<stop  offset="0.3968" style="stop-color:#D4AC40"/>
		<stop  offset="0.4357" style="stop-color:#D3AA3E"/>
		<stop  offset="0.4497" style="stop-color:#CEA33A"/>
		<stop  offset="0.4905" style="stop-color:#C39332"/>
		<stop  offset="0.5372" style="stop-color:#BC8A2D"/>
		<stop  offset="0.6029" style="stop-color:#BA872C"/>
		<stop  offset="0.6191" style="stop-color:#BC8B2E"/>
		<stop  offset="0.741" style="stop-color:#CCA438"/>
		<stop  offset="0.8524" style="stop-color:#D5B33F"/>
		<stop  offset="0.943" style="stop-color:#D8B841"/>
	</linearGradient>
	<path style="fill:url(#SVGID_00000134960046692985995090000003534415393027355798_);" d="M135,357.2l3.5,10l1.5-5.4v5.9l-4.1,13.8
		H135l-6.9-20.5c-0.2-0.7-0.5-1.1-0.7-1.4c-0.2-0.2-0.4-0.3-0.8-0.3c-0.8-0.2-1.2-0.5-1.2-1.1c0-0.3,0.1-0.5,0.3-0.7
		c0.2-0.2,0.5-0.3,1-0.3H135z M128.1,365.4l1.9,5.4v5.4c0,0.5,0,0.9,0.1,1.2c0,0.2,0.1,0.5,0.3,0.8c0.2,0.5,0.6,0.9,1,1.2l0.7,0.4
		c0.5,0.3,0.7,0.6,0.7,0.9c0,0.6-0.4,0.9-1.3,0.9h-4.5c-0.9,0-1.3-0.3-1.3-0.9c0-0.2,0-0.3,0.1-0.4c0.1-0.1,0.2-0.2,0.5-0.3
		c1.3-0.7,2-1.9,2-3.7V365.4z M141.6,357.2h7.9h0.5c0.9,0,1.3,0.3,1.3,0.9c0,0.5-0.2,0.8-0.7,1c-0.4,0.1-0.6,0.2-0.7,0.2
		c-0.1,0-0.1,0.1-0.2,0.2c-0.1,0.2-0.2,0.5-0.2,0.9v17.8c0,0.4,0.1,0.7,0.2,0.9c0.1,0.1,0.1,0.2,0.2,0.2c0.1,0,0.3,0.1,0.7,0.2
		c0.5,0.2,0.7,0.5,0.7,1c0,0.6-0.4,0.9-1.3,0.9h-0.5h-7.9h-0.6c-0.5,0-0.9-0.1-1.2-0.2c-0.3-0.2-0.4-0.4-0.4-0.7
		c0-0.5,0.3-0.8,0.9-1c0.5-0.1,0.7-0.2,0.8-0.2c0.1,0,0.2-0.1,0.2-0.2c0.2-0.2,0.3-0.6,0.3-1V357.2z"/>
	
		<linearGradient id="SVGID_00000031896066313435476070000014259150810517534860_" gradientUnits="userSpaceOnUse" x1="145.6597" y1="333.5631" x2="184.4682" y2="425.478">
		<stop  offset="2.290508e-02" style="stop-color:#F5E38D"/>
		<stop  offset="4.615803e-02" style="stop-color:#E7CE78"/>
		<stop  offset="8.894203e-02" style="stop-color:#D2AE56"/>
		<stop  offset="0.1297" style="stop-color:#C3963E"/>
		<stop  offset="0.1673" style="stop-color:#B9882F"/>
		<stop  offset="0.1986" style="stop-color:#B6832A"/>
		<stop  offset="0.2519" style="stop-color:#D3AF57"/>
		<stop  offset="0.3053" style="stop-color:#ECD57F"/>
		<stop  offset="0.3331" style="stop-color:#F6E48E"/>
		<stop  offset="0.3384" style="stop-color:#F0DA80"/>
		<stop  offset="0.3497" style="stop-color:#E5C868"/>
		<stop  offset="0.3624" style="stop-color:#DDBB55"/>
		<stop  offset="0.3774" style="stop-color:#D7B148"/>
		<stop  offset="0.3968" style="stop-color:#D4AC40"/>
		<stop  offset="0.4357" style="stop-color:#D3AA3E"/>
		<stop  offset="0.4497" style="stop-color:#CEA33A"/>
		<stop  offset="0.4905" style="stop-color:#C39332"/>
		<stop  offset="0.5372" style="stop-color:#BC8A2D"/>
		<stop  offset="0.6029" style="stop-color:#BA872C"/>
		<stop  offset="0.6191" style="stop-color:#BC8B2E"/>
		<stop  offset="0.741" style="stop-color:#CCA438"/>
		<stop  offset="0.8524" style="stop-color:#D5B33F"/>
		<stop  offset="0.943" style="stop-color:#D8B841"/>
	</linearGradient>
	<path style="fill:url(#SVGID_00000031896066313435476070000014259150810517534860_);" d="M160.1,361.7l0.9,3.7l-3.1,11.5
		c-0.1,0.3-0.1,0.6-0.1,0.9c0,0.7,0.4,1.3,1,1.6l0.6,0.3c0.4,0.2,0.6,0.5,0.6,0.9c0,0.6-0.4,0.9-1.3,0.9h-4.5c-0.4,0-0.8-0.1-1-0.3
		c-0.3-0.2-0.4-0.4-0.4-0.8c0-0.3,0.3-0.6,0.8-0.9c0.5-0.2,0.8-0.4,1.1-0.6c0.2-0.2,0.5-0.4,0.7-0.7c0.3-0.5,0.6-1.1,0.8-1.9
		L160.1,361.7z M161.3,357.2h7.2l4.9,20.9c0.1,0.4,0.2,0.7,0.3,1c0.1,0.2,0.3,0.4,0.7,0.6c0.3,0.1,0.5,0.3,0.6,0.4
		c0.1,0.1,0.2,0.3,0.2,0.5c0,0.6-0.5,0.9-1.4,0.9H165c-0.4,0-0.6-0.1-0.9-0.3c-0.2-0.2-0.3-0.4-0.3-0.7c0-0.2,0-0.4,0.1-0.5
		c0.1-0.1,0.3-0.3,0.6-0.4c0.2-0.1,0.4-0.2,0.5-0.4c0.1-0.1,0.1-0.3,0.1-0.5c0-0.2,0-0.4-0.1-0.5l-0.6-2.6h-5l0.5-2.1h4l-3.3-14.5
		L161.3,357.2z"/>
	
		<linearGradient id="SVGID_00000127045136311047080370000006179866961810121126_" gradientUnits="userSpaceOnUse" x1="180.8286" y1="348.9887" x2="214.5307" y2="437.8398">
		<stop  offset="2.290508e-02" style="stop-color:#F5E38D"/>
		<stop  offset="4.615803e-02" style="stop-color:#E7CE78"/>
		<stop  offset="8.894203e-02" style="stop-color:#D2AE56"/>
		<stop  offset="0.1297" style="stop-color:#C3963E"/>
		<stop  offset="0.1673" style="stop-color:#B9882F"/>
		<stop  offset="0.1986" style="stop-color:#B6832A"/>
		<stop  offset="0.2519" style="stop-color:#D3AF57"/>
		<stop  offset="0.3053" style="stop-color:#ECD57F"/>
		<stop  offset="0.3331" style="stop-color:#F6E48E"/>
		<stop  offset="0.3384" style="stop-color:#F0DA80"/>
		<stop  offset="0.3497" style="stop-color:#E5C868"/>
		<stop  offset="0.3624" style="stop-color:#DDBB55"/>
		<stop  offset="0.3774" style="stop-color:#D7B148"/>
		<stop  offset="0.3968" style="stop-color:#D4AC40"/>
		<stop  offset="0.4357" style="stop-color:#D3AA3E"/>
		<stop  offset="0.4497" style="stop-color:#CEA33A"/>
		<stop  offset="0.4905" style="stop-color:#C39332"/>
		<stop  offset="0.5372" style="stop-color:#BC8A2D"/>
		<stop  offset="0.6029" style="stop-color:#BA872C"/>
		<stop  offset="0.6191" style="stop-color:#BC8B2E"/>
		<stop  offset="0.741" style="stop-color:#CCA438"/>
		<stop  offset="0.8524" style="stop-color:#D5B33F"/>
		<stop  offset="0.943" style="stop-color:#D8B841"/>
	</linearGradient>
	<path style="fill:url(#SVGID_00000127045136311047080370000006179866961810121126_);" d="M186.8,381.5h-7.9h-0.5
		c-0.4,0-0.8-0.1-1-0.2c-0.2-0.2-0.3-0.4-0.3-0.7c0-0.5,0.2-0.8,0.7-1c0.4-0.1,0.6-0.2,0.7-0.2c0.1,0,0.1-0.1,0.2-0.2
		c0.1-0.2,0.2-0.5,0.2-0.9v-17.8c0-0.4-0.1-0.7-0.2-0.9c-0.1-0.1-0.1-0.2-0.2-0.2c-0.1,0-0.3-0.1-0.7-0.2c-0.5-0.2-0.7-0.5-0.7-1
		c0-0.3,0.1-0.5,0.3-0.7c0.2-0.2,0.6-0.2,1-0.2h0.5h7.9h0.5c0.4,0,0.8,0.1,1,0.2c0.2,0.2,0.3,0.4,0.3,0.7c0,0.5-0.2,0.8-0.7,1
		c-0.4,0.1-0.6,0.2-0.7,0.2c-0.1,0-0.1,0.1-0.2,0.2c-0.1,0.2-0.2,0.5-0.2,0.9v17.8c0,0.7,0.2,1.1,0.5,1.2l0.6,0.2
		c0.5,0.1,0.7,0.5,0.7,1c0,0.6-0.4,0.9-1.3,0.9H186.8z M193.9,364.3l5.4,14.1c0.1,0.4,0.3,0.7,0.4,0.9c0.2,0.2,0.4,0.3,0.6,0.5
		c0.2,0.1,0.4,0.2,0.5,0.3c0.2,0.2,0.2,0.4,0.2,0.7c0,0.6-0.4,0.9-1.3,0.9h-8.9c-0.4,0-0.8-0.1-1-0.3c-0.2-0.2-0.3-0.4-0.3-0.8
		c0-0.4,0.2-0.7,0.7-0.9c0.3-0.1,0.5-0.2,0.6-0.3c0.1-0.1,0.1-0.2,0.2-0.4c0-0.1,0-0.3-0.1-0.6l-2.3-6.8c-0.2-0.6-0.3-1.2-0.3-1.6
		c0-0.4,0.2-0.9,0.5-1.4l4.3-6c0.4-0.6,0.6-1.1,0.6-1.7c0-0.3-0.1-0.6-0.3-0.9c-0.2-0.3-0.4-0.5-0.7-0.6l-0.6-0.3
		c-0.4-0.2-0.6-0.4-0.6-0.8c0-0.3,0.1-0.6,0.4-0.8c0.2-0.1,0.4-0.2,0.8-0.2h6.3c0.4,0,0.7,0.1,1,0.3c0.2,0.2,0.3,0.4,0.3,0.8
		c0,0.5-0.3,0.9-0.8,1.1l-0.9,0.4c-0.4,0.1-0.9,0.5-1.5,1c-0.5,0.4-1,1-1.7,1.9L193.9,364.3z"/>
	
		<linearGradient id="SVGID_00000081616616738514673900000002599042677283636629_" gradientUnits="userSpaceOnUse" x1="204.6129" y1="339.9671" x2="238.315" y2="428.8181">
		<stop  offset="2.290508e-02" style="stop-color:#F5E38D"/>
		<stop  offset="4.615803e-02" style="stop-color:#E7CE78"/>
		<stop  offset="8.894203e-02" style="stop-color:#D2AE56"/>
		<stop  offset="0.1297" style="stop-color:#C3963E"/>
		<stop  offset="0.1673" style="stop-color:#B9882F"/>
		<stop  offset="0.1986" style="stop-color:#B6832A"/>
		<stop  offset="0.2519" style="stop-color:#D3AF57"/>
		<stop  offset="0.3053" style="stop-color:#ECD57F"/>
		<stop  offset="0.3331" style="stop-color:#F6E48E"/>
		<stop  offset="0.3384" style="stop-color:#F0DA80"/>
		<stop  offset="0.3497" style="stop-color:#E5C868"/>
		<stop  offset="0.3624" style="stop-color:#DDBB55"/>
		<stop  offset="0.3774" style="stop-color:#D7B148"/>
		<stop  offset="0.3968" style="stop-color:#D4AC40"/>
		<stop  offset="0.4357" style="stop-color:#D3AA3E"/>
		<stop  offset="0.4497" style="stop-color:#CEA33A"/>
		<stop  offset="0.4905" style="stop-color:#C39332"/>
		<stop  offset="0.5372" style="stop-color:#BC8A2D"/>
		<stop  offset="0.6029" style="stop-color:#BA872C"/>
		<stop  offset="0.6191" style="stop-color:#BC8B2E"/>
		<stop  offset="0.741" style="stop-color:#CCA438"/>
		<stop  offset="0.8524" style="stop-color:#D5B33F"/>
		<stop  offset="0.943" style="stop-color:#D8B841"/>
	</linearGradient>
	<path style="fill:url(#SVGID_00000081616616738514673900000002599042677283636629_);" d="M213.6,381.5h-7.9h-0.5
		c-0.4,0-0.8-0.1-1-0.2c-0.2-0.2-0.3-0.4-0.3-0.7c0-0.5,0.2-0.8,0.7-1c0.4-0.1,0.6-0.2,0.7-0.2c0.1,0,0.1-0.1,0.2-0.2
		c0.1-0.2,0.2-0.5,0.2-0.9v-17.8c0-0.4-0.1-0.7-0.2-0.9c-0.1-0.1-0.1-0.2-0.2-0.2c-0.1,0-0.3-0.1-0.7-0.2c-0.5-0.2-0.7-0.5-0.7-1
		c0-0.3,0.1-0.5,0.3-0.7c0.2-0.2,0.6-0.2,1-0.2h0.5h7.9h0.5c0.8,0,1.3,0.3,1.3,0.9c0,0.5-0.2,0.8-0.7,1l-0.6,0.2
		c-0.3,0.1-0.5,0.5-0.5,1.2v17.8c0,0.7,0.2,1.1,0.5,1.2l0.6,0.2c0.5,0.1,0.7,0.5,0.7,1c0,0.6-0.4,0.9-1.3,0.9H213.6z M215.1,368.2
		h2.9v-7.8c0-0.7-0.2-1.1-0.5-1.2l-0.6-0.2c-0.5-0.1-0.7-0.5-0.7-1c0-0.6,0.4-0.9,1.3-0.9h0.5h7.9h0.5c0.9,0,1.3,0.3,1.3,0.9
		c0,0.5-0.2,0.8-0.7,1c-0.4,0.1-0.6,0.2-0.7,0.2c-0.1,0-0.1,0.1-0.2,0.2c-0.1,0.2-0.2,0.5-0.2,0.9v17.7c0,0.7,0.2,1,0.5,1.2l0.6,0.2
		c0.5,0.2,0.7,0.5,0.7,1c0,0.6-0.4,0.9-1.3,0.9h-0.5h-7.9h-0.5c-0.8,0-1.2-0.3-1.2-0.9c0-0.5,0.2-0.8,0.7-1l0.6-0.2
		c0.3-0.1,0.5-0.5,0.5-1.2V370h-2.9V368.2z"/>
	
		<linearGradient id="SVGID_00000028316991114055256390000010956528854431159941_" gradientUnits="userSpaceOnUse" x1="229.0598" y1="330.6941" x2="262.762" y2="419.5452">
		<stop  offset="2.290508e-02" style="stop-color:#F5E38D"/>
		<stop  offset="4.615803e-02" style="stop-color:#E7CE78"/>
		<stop  offset="8.894203e-02" style="stop-color:#D2AE56"/>
		<stop  offset="0.1297" style="stop-color:#C3963E"/>
		<stop  offset="0.1673" style="stop-color:#B9882F"/>
		<stop  offset="0.1986" style="stop-color:#B6832A"/>
		<stop  offset="0.2519" style="stop-color:#D3AF57"/>
		<stop  offset="0.3053" style="stop-color:#ECD57F"/>
		<stop  offset="0.3331" style="stop-color:#F6E48E"/>
		<stop  offset="0.3384" style="stop-color:#F0DA80"/>
		<stop  offset="0.3497" style="stop-color:#E5C868"/>
		<stop  offset="0.3624" style="stop-color:#DDBB55"/>
		<stop  offset="0.3774" style="stop-color:#D7B148"/>
		<stop  offset="0.3968" style="stop-color:#D4AC40"/>
		<stop  offset="0.4357" style="stop-color:#D3AA3E"/>
		<stop  offset="0.4497" style="stop-color:#CEA33A"/>
		<stop  offset="0.4905" style="stop-color:#C39332"/>
		<stop  offset="0.5372" style="stop-color:#BC8A2D"/>
		<stop  offset="0.6029" style="stop-color:#BA872C"/>
		<stop  offset="0.6191" style="stop-color:#BC8B2E"/>
		<stop  offset="0.741" style="stop-color:#CCA438"/>
		<stop  offset="0.8524" style="stop-color:#D5B33F"/>
		<stop  offset="0.943" style="stop-color:#D8B841"/>
	</linearGradient>
	<path style="fill:url(#SVGID_00000028316991114055256390000010956528854431159941_);" d="M240.3,357.2l3.5,10l1.5-5.4v5.9
		l-4.1,13.8h-0.9l-6.9-20.5c-0.2-0.7-0.5-1.1-0.7-1.4c-0.2-0.2-0.4-0.3-0.8-0.3c-0.8-0.2-1.2-0.5-1.2-1.1c0-0.3,0.1-0.5,0.3-0.7
		c0.2-0.2,0.5-0.3,1-0.3H240.3z M233.4,365.4l1.9,5.4v5.4c0,0.5,0,0.9,0.1,1.2c0,0.2,0.1,0.5,0.3,0.8c0.2,0.5,0.6,0.9,1,1.2l0.7,0.4
		c0.5,0.3,0.7,0.6,0.7,0.9c0,0.6-0.4,0.9-1.3,0.9h-4.5c-0.9,0-1.3-0.3-1.3-0.9c0-0.2,0-0.3,0.1-0.4c0.1-0.1,0.2-0.2,0.5-0.3
		c1.3-0.7,2-1.9,2-3.7V365.4z M246.9,357.2h7.9h0.5c0.9,0,1.3,0.3,1.3,0.9c0,0.5-0.2,0.8-0.7,1c-0.4,0.1-0.6,0.2-0.7,0.2
		c-0.1,0-0.1,0.1-0.2,0.2c-0.1,0.2-0.2,0.5-0.2,0.9v17.8c0,0.4,0.1,0.7,0.2,0.9c0.1,0.1,0.1,0.2,0.2,0.2c0.1,0,0.3,0.1,0.7,0.2
		c0.5,0.2,0.7,0.5,0.7,1c0,0.6-0.4,0.9-1.3,0.9h-0.5h-7.9h-0.6c-0.5,0-0.9-0.1-1.2-0.2c-0.3-0.2-0.4-0.4-0.4-0.7
		c0-0.5,0.3-0.8,0.9-1c0.5-0.1,0.7-0.2,0.8-0.2c0.1,0,0.2-0.1,0.2-0.2c0.2-0.2,0.3-0.6,0.3-1V357.2z"/>
	
		<linearGradient id="SVGID_00000161593709666683538150000017960021402226805393_" gradientUnits="userSpaceOnUse" x1="259.8523" y1="351.2437" x2="283.8523" y2="421.2012">
		<stop  offset="2.290508e-02" style="stop-color:#F5E38D"/>
		<stop  offset="4.615803e-02" style="stop-color:#E7CE78"/>
		<stop  offset="8.894203e-02" style="stop-color:#D2AE56"/>
		<stop  offset="0.1297" style="stop-color:#C3963E"/>
		<stop  offset="0.1673" style="stop-color:#B9882F"/>
		<stop  offset="0.1986" style="stop-color:#B6832A"/>
		<stop  offset="0.2519" style="stop-color:#D3AF57"/>
		<stop  offset="0.3053" style="stop-color:#ECD57F"/>
		<stop  offset="0.3331" style="stop-color:#F6E48E"/>
		<stop  offset="0.3384" style="stop-color:#F0DA80"/>
		<stop  offset="0.3497" style="stop-color:#E5C868"/>
		<stop  offset="0.3624" style="stop-color:#DDBB55"/>
		<stop  offset="0.3774" style="stop-color:#D7B148"/>
		<stop  offset="0.3968" style="stop-color:#D4AC40"/>
		<stop  offset="0.4357" style="stop-color:#D3AA3E"/>
		<stop  offset="0.4497" style="stop-color:#CEA33A"/>
		<stop  offset="0.4905" style="stop-color:#C39332"/>
		<stop  offset="0.5372" style="stop-color:#BC8A2D"/>
		<stop  offset="0.6029" style="stop-color:#BA872C"/>
		<stop  offset="0.6191" style="stop-color:#BC8B2E"/>
		<stop  offset="0.741" style="stop-color:#CCA438"/>
		<stop  offset="0.8524" style="stop-color:#D5B33F"/>
		<stop  offset="0.943" style="stop-color:#D8B841"/>
	</linearGradient>
	<path style="fill:url(#SVGID_00000161593709666683538150000017960021402226805393_);" d="M265.4,361.7l0.9,3.7l-3.1,11.5
		c-0.1,0.3-0.1,0.6-0.1,0.9c0,0.7,0.4,1.3,1,1.6l0.6,0.3c0.4,0.2,0.6,0.5,0.6,0.9c0,0.6-0.4,0.9-1.3,0.9h-4.5c-0.4,0-0.8-0.1-1-0.3
		c-0.3-0.2-0.4-0.4-0.4-0.8c0-0.3,0.3-0.6,0.8-0.9c0.5-0.2,0.8-0.4,1.1-0.6c0.2-0.2,0.5-0.4,0.7-0.7c0.3-0.5,0.6-1.1,0.8-1.9
		L265.4,361.7z M266.6,357.2h7.2l4.9,20.9c0.1,0.4,0.2,0.7,0.3,1c0.1,0.2,0.3,0.4,0.7,0.6c0.3,0.1,0.5,0.3,0.6,0.4
		c0.1,0.1,0.2,0.3,0.2,0.5c0,0.6-0.5,0.9-1.4,0.9h-8.9c-0.4,0-0.6-0.1-0.9-0.3c-0.2-0.2-0.3-0.4-0.3-0.7c0-0.2,0-0.4,0.1-0.5
		c0.1-0.1,0.3-0.3,0.6-0.4c0.2-0.1,0.4-0.2,0.5-0.4s0.1-0.3,0.1-0.5c0-0.2,0-0.4-0.1-0.5l-0.6-2.6h-5l0.5-2.1h4l-3.3-14.5
		L266.6,357.2z"/>
	
		<linearGradient id="SVGID_00000057136129878001793840000015865781531113632918_" gradientUnits="userSpaceOnUse" x1="279.7613" y1="344.4136" x2="303.7613" y2="414.3711">
		<stop  offset="2.290508e-02" style="stop-color:#F5E38D"/>
		<stop  offset="4.615803e-02" style="stop-color:#E7CE78"/>
		<stop  offset="8.894203e-02" style="stop-color:#D2AE56"/>
		<stop  offset="0.1297" style="stop-color:#C3963E"/>
		<stop  offset="0.1673" style="stop-color:#B9882F"/>
		<stop  offset="0.1986" style="stop-color:#B6832A"/>
		<stop  offset="0.2519" style="stop-color:#D3AF57"/>
		<stop  offset="0.3053" style="stop-color:#ECD57F"/>
		<stop  offset="0.3331" style="stop-color:#F6E48E"/>
		<stop  offset="0.3384" style="stop-color:#F0DA80"/>
		<stop  offset="0.3497" style="stop-color:#E5C868"/>
		<stop  offset="0.3624" style="stop-color:#DDBB55"/>
		<stop  offset="0.3774" style="stop-color:#D7B148"/>
		<stop  offset="0.3968" style="stop-color:#D4AC40"/>
		<stop  offset="0.4357" style="stop-color:#D3AA3E"/>
		<stop  offset="0.4497" style="stop-color:#CEA33A"/>
		<stop  offset="0.4905" style="stop-color:#C39332"/>
		<stop  offset="0.5372" style="stop-color:#BC8A2D"/>
		<stop  offset="0.6029" style="stop-color:#BA872C"/>
		<stop  offset="0.6191" style="stop-color:#BC8B2E"/>
		<stop  offset="0.741" style="stop-color:#CCA438"/>
		<stop  offset="0.8524" style="stop-color:#D5B33F"/>
		<stop  offset="0.943" style="stop-color:#D8B841"/>
	</linearGradient>
	<path style="fill:url(#SVGID_00000057136129878001793840000015865781531113632918_);" d="M291.8,381.5h-7.9h-0.5
		c-0.4,0-0.8-0.1-1-0.2c-0.2-0.2-0.3-0.4-0.3-0.7c0-0.5,0.2-0.8,0.7-1c0.4-0.1,0.6-0.2,0.7-0.2c0.1,0,0.1-0.1,0.2-0.2
		c0.1-0.2,0.2-0.5,0.2-0.9v-17.8c0-0.4-0.1-0.7-0.2-0.9c-0.1-0.1-0.1-0.2-0.2-0.2c-0.1,0-0.3-0.1-0.7-0.2c-0.5-0.2-0.7-0.5-0.7-1
		c0-0.3,0.1-0.5,0.3-0.7c0.2-0.2,0.6-0.2,1-0.2h0.5h7.9h0.6c0.5,0,0.9,0.1,1.1,0.2c0.3,0.2,0.5,0.4,0.5,0.7c0,0.5-0.3,0.8-0.9,1
		c-0.5,0.1-0.7,0.2-0.8,0.2c-0.1,0-0.2,0.1-0.3,0.2c-0.2,0.2-0.3,0.5-0.3,1V381.5z M293.2,381.5v-2c0.6-0.1,1-0.2,1.4-0.4
		c0.3-0.1,0.7-0.3,1-0.6c0.5-0.4,1-0.9,1.4-1.6c0.4-0.7,0.8-1.5,1-2.3c0.2-0.7,0.4-1.1,0.5-1.3c0.2-0.2,0.4-0.3,0.7-0.3
		c0.3,0,0.6,0.1,0.7,0.4c0.1,0.1,0.1,0.4,0.1,0.8v7.2H293.2z"/>
	
		<linearGradient id="SVGID_00000044138463224299942670000006314024672969889666_" gradientUnits="userSpaceOnUse" x1="310.355" y1="325.2095" x2="337.9294" y2="469.7202">
		<stop  offset="2.290508e-02" style="stop-color:#F5E38D"/>
		<stop  offset="4.615803e-02" style="stop-color:#E7CE78"/>
		<stop  offset="8.894203e-02" style="stop-color:#D2AE56"/>
		<stop  offset="0.1297" style="stop-color:#C3963E"/>
		<stop  offset="0.1673" style="stop-color:#B9882F"/>
		<stop  offset="0.1986" style="stop-color:#B6832A"/>
		<stop  offset="0.2519" style="stop-color:#D3AF57"/>
		<stop  offset="0.3053" style="stop-color:#ECD57F"/>
		<stop  offset="0.3331" style="stop-color:#F6E48E"/>
		<stop  offset="0.3384" style="stop-color:#F0DA80"/>
		<stop  offset="0.3497" style="stop-color:#E5C868"/>
		<stop  offset="0.3624" style="stop-color:#DDBB55"/>
		<stop  offset="0.3774" style="stop-color:#D7B148"/>
		<stop  offset="0.3968" style="stop-color:#D4AC40"/>
		<stop  offset="0.4357" style="stop-color:#D3AA3E"/>
		<stop  offset="0.4497" style="stop-color:#CEA33A"/>
		<stop  offset="0.4905" style="stop-color:#C39332"/>
		<stop  offset="0.5372" style="stop-color:#BC8A2D"/>
		<stop  offset="0.6029" style="stop-color:#BA872C"/>
		<stop  offset="0.6191" style="stop-color:#BC8B2E"/>
		<stop  offset="0.741" style="stop-color:#CCA438"/>
		<stop  offset="0.8524" style="stop-color:#D5B33F"/>
		<stop  offset="0.943" style="stop-color:#D8B841"/>
	</linearGradient>
	<path style="fill:url(#SVGID_00000044138463224299942670000006314024672969889666_);" d="M315.2,379.9v2c-1.5-0.2-2.7-0.6-3.6-1.2
		c-0.8-0.5-1.4-1.2-1.9-2c-0.4-0.8-0.7-1.6-0.7-2.5c0-1.1,0.4-2,1.1-2.8c0.7-0.8,1.6-1.2,2.7-1.2c1,0,1.8,0.3,2.5,1
		c0.7,0.7,1,1.5,1,2.5c0,0.8-0.3,1.5-0.8,2.1c-0.3,0.4-0.8,0.8-1.5,1.1c-0.2,0.1-0.3,0.2-0.3,0.2c0,0.1,0,0.1,0.2,0.2
		c0.1,0.1,0.3,0.2,0.4,0.2C314.6,379.8,314.9,379.8,315.2,379.9z M318,377.4v-16.8c0-0.7-0.2-1.2-0.6-1.2l-0.7-0.2
		c-0.6-0.1-0.9-0.5-0.9-1c0-0.3,0.1-0.6,0.4-0.7c0.3-0.2,0.7-0.2,1.2-0.2l0.6,0h7.9l0.5,0l0.6,0.1c0.5,0.1,0.7,0.4,0.7,0.9
		c0,0.5-0.2,0.8-0.7,1l-0.6,0.2c-0.4,0.1-0.5,0.5-0.5,1.2v14.9c0,2.2-0.7,3.8-2.1,5c-0.7,0.5-1.5,1-2.6,1.3c-1,0.3-2.1,0.5-3.3,0.5
		c-0.2,0-0.5,0-1,0v-2.1c0.1-0.1,0.1-0.1,0.2-0.1c0.2-0.2,0.4-0.3,0.5-0.4c0.1-0.1,0.2-0.3,0.3-0.4C317.9,378.5,318,378,318,377.4z"
		/>
	
		<linearGradient id="SVGID_00000145776489922596821740000014213134314997583283_" gradientUnits="userSpaceOnUse" x1="328.6952" y1="321.71" x2="356.2697" y2="466.2206">
		<stop  offset="2.290508e-02" style="stop-color:#F5E38D"/>
		<stop  offset="4.615803e-02" style="stop-color:#E7CE78"/>
		<stop  offset="8.894203e-02" style="stop-color:#D2AE56"/>
		<stop  offset="0.1297" style="stop-color:#C3963E"/>
		<stop  offset="0.1673" style="stop-color:#B9882F"/>
		<stop  offset="0.1986" style="stop-color:#B6832A"/>
		<stop  offset="0.2519" style="stop-color:#D3AF57"/>
		<stop  offset="0.3053" style="stop-color:#ECD57F"/>
		<stop  offset="0.3331" style="stop-color:#F6E48E"/>
		<stop  offset="0.3384" style="stop-color:#F0DA80"/>
		<stop  offset="0.3497" style="stop-color:#E5C868"/>
		<stop  offset="0.3624" style="stop-color:#DDBB55"/>
		<stop  offset="0.3774" style="stop-color:#D7B148"/>
		<stop  offset="0.3968" style="stop-color:#D4AC40"/>
		<stop  offset="0.4357" style="stop-color:#D3AA3E"/>
		<stop  offset="0.4497" style="stop-color:#CEA33A"/>
		<stop  offset="0.4905" style="stop-color:#C39332"/>
		<stop  offset="0.5372" style="stop-color:#BC8A2D"/>
		<stop  offset="0.6029" style="stop-color:#BA872C"/>
		<stop  offset="0.6191" style="stop-color:#BC8B2E"/>
		<stop  offset="0.741" style="stop-color:#CCA438"/>
		<stop  offset="0.8524" style="stop-color:#D5B33F"/>
		<stop  offset="0.943" style="stop-color:#D8B841"/>
	</linearGradient>
	<path style="fill:url(#SVGID_00000145776489922596821740000014213134314997583283_);" d="M336,361.7l0.9,3.7l-3.1,11.5
		c-0.1,0.3-0.1,0.6-0.1,0.9c0,0.7,0.4,1.3,1,1.6l0.6,0.3c0.4,0.2,0.6,0.5,0.6,0.9c0,0.6-0.4,0.9-1.3,0.9h-4.5c-0.4,0-0.8-0.1-1-0.3
		c-0.3-0.2-0.4-0.4-0.4-0.8c0-0.3,0.3-0.6,0.8-0.9c0.5-0.2,0.8-0.4,1.1-0.6c0.2-0.2,0.5-0.4,0.7-0.7c0.3-0.5,0.6-1.1,0.8-1.9
		L336,361.7z M337.2,357.2h7.2l4.9,20.9c0.1,0.4,0.2,0.7,0.3,1c0.1,0.2,0.3,0.4,0.7,0.6c0.3,0.1,0.5,0.3,0.6,0.4
		c0.1,0.1,0.2,0.3,0.2,0.5c0,0.6-0.5,0.9-1.4,0.9h-8.9c-0.4,0-0.6-0.1-0.9-0.3c-0.2-0.2-0.3-0.4-0.3-0.7c0-0.2,0-0.4,0.1-0.5
		c0.1-0.1,0.3-0.3,0.6-0.4c0.2-0.1,0.4-0.2,0.5-0.4s0.1-0.3,0.1-0.5c0-0.2,0-0.4-0.1-0.5l-0.6-2.6h-5l0.5-2.1h4l-3.3-14.5
		L337.2,357.2z"/>
	
		<linearGradient id="SVGID_00000011015443109204685720000016092360870928986792_" gradientUnits="userSpaceOnUse" x1="353.7792" y1="316.9236" x2="381.3537" y2="461.4343">
		<stop  offset="2.290508e-02" style="stop-color:#F5E38D"/>
		<stop  offset="4.615803e-02" style="stop-color:#E7CE78"/>
		<stop  offset="8.894203e-02" style="stop-color:#D2AE56"/>
		<stop  offset="0.1297" style="stop-color:#C3963E"/>
		<stop  offset="0.1673" style="stop-color:#B9882F"/>
		<stop  offset="0.1986" style="stop-color:#B6832A"/>
		<stop  offset="0.2519" style="stop-color:#D3AF57"/>
		<stop  offset="0.3053" style="stop-color:#ECD57F"/>
		<stop  offset="0.3331" style="stop-color:#F6E48E"/>
		<stop  offset="0.3384" style="stop-color:#F0DA80"/>
		<stop  offset="0.3497" style="stop-color:#E5C868"/>
		<stop  offset="0.3624" style="stop-color:#DDBB55"/>
		<stop  offset="0.3774" style="stop-color:#D7B148"/>
		<stop  offset="0.3968" style="stop-color:#D4AC40"/>
		<stop  offset="0.4357" style="stop-color:#D3AA3E"/>
		<stop  offset="0.4497" style="stop-color:#CEA33A"/>
		<stop  offset="0.4905" style="stop-color:#C39332"/>
		<stop  offset="0.5372" style="stop-color:#BC8A2D"/>
		<stop  offset="0.6029" style="stop-color:#BA872C"/>
		<stop  offset="0.6191" style="stop-color:#BC8B2E"/>
		<stop  offset="0.741" style="stop-color:#CCA438"/>
		<stop  offset="0.8524" style="stop-color:#D5B33F"/>
		<stop  offset="0.943" style="stop-color:#D8B841"/>
	</linearGradient>
	<path style="fill:url(#SVGID_00000011015443109204685720000016092360870928986792_);" d="M355.3,363.5l1.9,3.1v9.5
		c0,0.8,0.1,1.5,0.4,2c0.3,0.5,0.7,1,1.3,1.3l0.5,0.3c0.3,0.2,0.5,0.4,0.5,0.8c0,0.3-0.1,0.5-0.3,0.7c-0.2,0.2-0.6,0.2-1.2,0.2h-4.1
		c-1.1,0-1.6-0.3-1.6-0.9c0-0.2,0.1-0.4,0.2-0.5c0.1-0.1,0.4-0.3,0.7-0.5c1.1-0.6,1.7-1.8,1.7-3.4V363.5z M362.7,357.2l9.5,16.4v7.8
		h-4.9l-12.1-20.8c-0.3-0.5-0.5-0.8-0.6-0.9c-0.2-0.2-0.4-0.3-0.6-0.4l-0.7-0.2c-0.2-0.1-0.3-0.2-0.4-0.3c-0.1-0.2-0.2-0.3-0.2-0.5
		c0-0.2,0.1-0.4,0.2-0.6c0.1-0.2,0.2-0.3,0.4-0.4c0.2-0.1,0.7-0.1,1.6-0.1H362.7z M372.2,370.8l-1.9-3.2v-4.9c0-1-0.1-1.8-0.4-2.3
		c-0.3-0.5-0.8-1-1.5-1.4c-0.2-0.1-0.4-0.2-0.5-0.4c-0.1-0.1-0.1-0.3-0.1-0.5c0-0.3,0.1-0.6,0.3-0.7c0.2-0.1,0.5-0.2,1-0.2h4.4
		c0.6,0,1,0.1,1.2,0.3c0.2,0.2,0.3,0.4,0.3,0.7c0,0.2-0.1,0.4-0.2,0.6c-0.1,0.1-0.4,0.3-0.8,0.5c-0.6,0.3-1.1,0.8-1.4,1.5
		c-0.2,0.5-0.3,1.1-0.3,2V370.8z"/>
</g>
</svg>
